<svg width="2000px" height="440px" version="1.1" x="0px" y="0px" viewBox="0 0 2000 440" xml:space="preserve"><defs><style>.cls-1,.cls-15,.cls-16,.cls-17,.cls-18,.cls-21,.cls-27,.cls-28,.cls-29,.cls-30,.cls-31,.cls-32,.cls-8,.cls-9{fill:none;}.cls-2,.cls-23{fill:#fff;}.cls-3{clip-path:url(#clip-path);}.cls-4{fill:#f2f5f8;}.cls-5{fill:#dfe4ea;}.cls-13,.cls-6{fill:#bac1cf;}.cls-7{fill:#cdd2dd;}.cls-28,.cls-29,.cls-32,.cls-8{stroke:#cdd2dd;}.cls-13,.cls-15,.cls-16,.cls-17,.cls-18,.cls-21,.cls-23,.cls-27,.cls-28,.cls-29,.cls-30,.cls-31,.cls-32,.cls-8,.cls-9{stroke-miterlimit:10;}.cls-15,.cls-18,.cls-23,.cls-8,.cls-9{stroke-width:2px;}.cls-31,.cls-9{stroke:#dfe4ea;}.cls-10{isolation:isolate;}.cls-11{fill:#8691a7;}.cls-12{fill:#8a92a3;}.cls-13,.cls-16{stroke:#f0426e;}.cls-13{stroke-width:0.1px;}.cls-14{fill:#e9edf1;}.cls-15,.cls-17,.cls-27,.cls-30{stroke:#bac1cf;}.cls-17,.cls-18{stroke-linecap:round;}.cls-17,.cls-28,.cls-31{stroke-width:3px;}.cls-18,.cls-23{stroke:#e9edf1;}.cls-19{fill:#596377;}.cls-20{fill:#2f3849;}.cls-21{stroke:#8a92a3;}.cls-22{fill:#454d5e;}.cls-24{fill:#f0426e;}.cls-25{fill:#a10c50;}.cls-26{fill:#192234;}.cls-27{stroke-width:3.75px;}.cls-29{stroke-width:4px;}.cls-32{stroke-width:6px;}</style><clipPath id="clip-path"><path class="cls-1" d="M23.4,350.71c79.61-30.79,139.07-98.9,195.15-163.24,29.74-34.12,70.19-71.77,113.66-59.19,14.7,4.25,27.13,13.92,40.79,20.8,70.12,35.33,152.15-7,222.77-41.33A1135.24,1135.24,0,0,1,752.13,45.62c34.36-10.78,73-19.63,105.23-3.55,46,23,62.59,107,112.28,120.26,29.83,8,60.67-24.63,87.41-40.07,45.14-26.06,88.7-56,138-72.92s106.93-19.1,150.84,9c17.88,11.44,35.54,28.25,56.61,25.71,17.59-2.12,30.25-17.11,44.29-27.91,32.65-25.11,80.59-28.33,116.31-7.81,48.65,27.95,71.22,92.09,123.86,111.49,34.35,12.66,72.26,2.62,108.66-1.36s79.62,1.78,98.26,33.29c12.78,21.6,9.85,48.69,15.28,73.2,10,45.29,52.58,81.28,98.9,83.68V440H23.4Z"></path></clipPath></defs><g id="White_layer" data-name="White layer"><rect class="cls-2" y="0.8" width="2000" height="439.2"></rect></g><g id="Background"><g class="cls-3"><rect class="cls-4" x="0.22" y="0.72" width="2000" height="341.43"></rect><rect class="cls-5" y="335.66" width="2000" height="15.05"></rect><rect class="cls-5" x="1676.78" y="33.27" width="166.89" height="317.44"></rect><rect class="cls-6" x="1691.01" y="33.27" width="138.67" height="317.44"></rect><polygon class="cls-7" points="1821.55 97.55 1829.68 95.74 1829.68 350.71 1821.55 350.02 1821.55 97.55"></polygon></g><path class="cls-2" d="M120.72,298.56c-7.53,2-8.49,12.12-3,13.88,7.51,2.41,14.52-5.43,12.8-10.71C129.24,297.75,124.58,297.55,120.72,298.56Z"></path><path class="cls-4" d="M58.1,306.61c.76,2.49,1.47,4.15,3.85,5.25,17.88,8.23,39.92-12.91,34.09-27-1.09-2.64-2.44-4.32-5.22-5.12C70.58,273.86,53.32,290.9,58.1,306.61Z"></path><path class="cls-4" d="M108,277.89a7.28,7.28,0,0,0,4.92,5.07c7.79,2.4,16.93-8.38,14.49-14.18a4.14,4.14,0,0,0-2.23-2.61C116.29,263.17,106.5,270.89,108,277.89Z"></path><path class="cls-4" d="M90.63,270.62a4.63,4.63,0,0,0,2.57,3.32c4.5,2.06,12.44-4,10.62-9.34a2.4,2.4,0,0,0-1.68-1.59C95.76,261,89.69,265.85,90.63,270.62Z"></path><path class="cls-8" d="M1143.75,118.89c3.08,4.85,8.94,11.35,11.8,16.34"></path><path class="cls-5" d="M1156.57,90.54c-.83-6.12,3.52-4.95,6.19-6.33.46-.24,1-.91.1-1.17-8.89-2.58-8.83-2.62-9.61-2.64a4.93,4.93,0,0,0-4.18,2.72,18.85,18.85,0,0,0-1.6,5c-2.21,9-7.4,17.1-13.66,24s-13.61,12.63-20.9,18.39c-.58.46-1.23,1.15-.95,1.83,6-4.33,12.17-8.77,19.4-10.15,4.17-.8,8.5-.53,12.65-1.43,11.17-2.42,17.72-12.59,15.34-22.07-.66-2.63-2.26-4.59-2.77-8.08"></path><path class="cls-9" d="M1141.59,119.19l8.76,17.41"></path><g class="cls-10"><path class="cls-11" d="M1290.21,125.55a5.72,5.72,0,0,1-2.72,1.35l-6.4,8.81a3.54,3.54,0,0,0,1.68-.84Z"></path><path class="cls-11" d="M1258.64,134.87c.5.62,2.47,1.2,5.69,1.56,5.74.63,13.24.31,16.77-.72l6.4-8.81c-5.69,1.67-17.83,2.19-27.1,1.17-5.2-.57-8.39-1.51-9.19-2.52Z"></path><path class="cls-5" d="M1278.47,89c2.6-.76,1.27-1.76-3-2.23s-9.77-.23-12.36.53c-.81.24-1.24.5-1.32.76a.29.29,0,0,0,0,.14.29.29,0,0,1,0-.14l-1.07,3.63-.53,1.81-1.07,3.63-1.07,3.63-.53,1.81-1.07,3.63-1.07,3.63-.53,1.81-1.07,3.63-1.07,3.63-.53,1.81-1.07,3.63c-.37,1.26,3,2.51,9.37,3.21,9.27,1,21.41.5,27.1-1.17Zm-16.63-.76a.41.41,0,0,0,.06.12A.41.41,0,0,1,1261.83,88.21Zm.07.14a.85.85,0,0,0,.14.13A.85.85,0,0,1,1261.91,88.35Zm1.56.71-.42-.12Zm-.5-.14-.29-.1Zm-.37-.13-.28-.13Zm-.33-.15-.18-.11Zm3.15.79.68.08Zm-1.87-.34.41.09Zm.54.12.55.1Zm.62.11.54.08Z"></path><path class="cls-2" d="M1277.7,87.65l9.79,39.25-9.13-37.39C1280.41,88.92,1280,88.17,1277.7,87.65Z"></path><path class="cls-11" d="M1281.09,135.71c3.52-1,1.73-2.38-4-3s-13.24-.31-16.77.72-1.73,2.38,4,3S1277.57,136.74,1281.09,135.71Z"></path></g><path class="cls-2" d="M1290.38,124.86l-10.65-36.12H1278l9.52,38.16C1289.67,126.27,1290.59,125.56,1290.38,124.86Z"></path><path class="cls-7" d="M1282.77,134.88l7.44-9.32c1.08-1.36-2.29-2.77-9.2-3.53-9.27-1-21.41-.5-27.1,1.17-2.5.73-3.35,1.57-2.71,2.36h0l7.44,9.33c-.39-.49.13-1,1.68-1.46,3.52-1,11-1.36,16.77-.72C1281.36,133.17,1283.44,134,1282.77,134.88Z"></path><path class="cls-6" d="M1328.79,81.65c0,.31-.47.63-1.45.91l0,5c1-.28,1.45-.6,1.45-.91Z"></path><path class="cls-6" d="M1327.34,82.57c2.83-.82,1.4-1.91-3.21-2.44s-10.63-.3-13.46.52-1.4,1.91,3.21,2.44S1324.51,83.38,1327.34,82.57Z"></path><path class="cls-6" d="M1309.2,86.59c0,.59,1.65,1.18,4.66,1.52,4.6.53,10.63.3,13.46-.52l0-5c-2.83.82-8.86,1-13.46.52-3-.35-4.66-.93-4.66-1.52Z"></path><path class="cls-7" d="M1328.77,86.68l0-5c0-.59-1.65-1.18-4.66-1.52-4.6-.53-10.63-.3-13.46.52-1,.28-1.45.6-1.45.91l0,5c0-.31.47-.63,1.45-.91,2.83-.82,8.86-1,13.46-.52C1327.12,85.5,1328.77,86.09,1328.77,86.68Z"></path><path class="cls-5" d="M1337.82,93.14l-.93-.69-.47-.34-.93-.69-.93-.69-.47-.34-.93-.69-.93-.69-.47-.34-.93-.69-.93-.69-.47-.34-.93-.69a11,11,0,0,0-4.37-1.1c-4.6-.53-10.63-.3-13.46.52a3.94,3.94,0,0,0-1.17.5h0l-9.4,6.8a7.82,7.82,0,0,1,2.32-1c5.62-1.62,17.59-2.08,26.73-1C1333.66,91.48,1336.65,92.28,1337.82,93.14Z"></path><path class="cls-5" d="M1300.08,93c-2,1.43,1.3,3,8.69,3.86,9.14,1.05,21.11.59,26.73-1l-8.19-8.21c-2.83.82-8.86,1-13.46.52-3.72-.43-5.37-1.22-4.37-1.94Z"></path><path class="cls-2" d="M1325.1,85.29l5.85,5.91c3.51.51,5.87,1.2,6.88,1.95l-1-.75-.38-.28-.42-.31-.3-.22-.22-.16-.26-.19-.36-.27-.31-.23-.17-.12-.87-.64-.37-.27-.28-.21-1-.73-.13-.1-.93-.69-.93-.69-.21-.15-.06,0-.2-.15-.14-.1-.79-.59c.26.19-.07,0-.64-.33A13.42,13.42,0,0,0,1325.1,85.29Z"></path><path class="cls-2" d="M1338.39,94c0,.62-.93,1.25-2.88,1.81l-.16,35.41c1.95-.56,2.88-1.19,2.88-1.81Z"></path><path class="cls-7" d="M1329.13,91c-9.14-1.05-21.11-.59-26.73,1-1.95.56-2.88,1.19-2.88,1.81,0,2.09,0,4.31,0,6.62V103q0,1.75,0,3.53l0,4.95c0,1.65,0,3.3,0,4.93l0,3.56c0,.87,0,1.74,0,2.59l0,6.62c0,1.18,3.28,2.34,9.25,3,9.14,1.05,21.11.59,26.73-1l0-3.66c1.88.56,2.87,1.2,2.87,1.85l.16-35.41C1338.39,92.81,1335.1,91.65,1329.13,91Z"></path><path class="cls-2" d="M1325.1,80.26v5c2.38.35,3.67.87,3.67,1.39l0-5C1328.79,81.13,1327.49,80.61,1325.1,80.26Z"></path><path class="cls-2" d="M1331.06,91.21v40.86a32.52,32.52,0,0,0,4.29-.86l0-3.66c1.88.56,2.87,1.2,2.87,1.85l.16-35.41C1338.39,92.94,1335.8,91.91,1331.06,91.21Z"></path><rect class="cls-2" x="1098.77" y="128.85" width="263.59" height="6.38"></rect><polygon class="cls-12" points="1092.71 144.37 1098.88 135.28 1098.88 128.85 1092.71 138.34 1092.71 144.37"></polygon><polygon class="cls-6" points="1362.25 135.23 1099 135.23 1092.78 144.37 1339.5 144.37 1362.25 135.23"></polygon><circle class="cls-13" cx="1153.03" cy="83.59" r="0.85"></circle><circle class="cls-14" cx="1508.92" cy="99.61" r="48.02"></circle><circle class="cls-2" cx="1513.92" cy="95.61" r="48.02"></circle><line class="cls-15" x1="1513.92" y1="95.61" x2="1513.92" y2="74.25"></line><polygon class="cls-6" points="1513.92 68.23 1508.04 78.43 1519.81 78.43 1513.92 68.23"></polygon><line class="cls-15" x1="1513.92" y1="95.61" x2="1544.83" y2="79.68"></line><circle class="cls-7" cx="1513.92" cy="95.61" r="4.99"></circle><circle class="cls-2" cx="1513.92" cy="95.61" r="1.94"></circle><line class="cls-16" x1="1520.93" y1="86.32" x2="1495.56" y2="119.96"></line><path class="cls-2" d="M1522.39,84.3s.18,2.84-.41,3.65a1.8,1.8,0,1,1-2.93-2.11C1519.64,85,1522.39,84.3,1522.39,84.3Z"></path><line class="cls-17" x1="1513.92" y1="54.61" x2="1513.92" y2="54.61"></line><line class="cls-17" x1="1513.92" y1="136.61" x2="1513.92" y2="136.61"></line><line class="cls-17" x1="1493.42" y1="60.1" x2="1493.42" y2="60.1"></line><line class="cls-17" x1="1534.42" y1="131.12" x2="1534.42" y2="131.12"></line><line class="cls-17" x1="1478.42" y1="75.11" x2="1478.42" y2="75.11"></line><line class="cls-17" x1="1549.43" y1="116.11" x2="1549.43" y2="116.11"></line><line class="cls-17" x1="1472.92" y1="95.61" x2="1472.92" y2="95.61"></line><line class="cls-17" x1="1554.92" y1="95.61" x2="1554.92" y2="95.61"></line><line class="cls-17" x1="1478.42" y1="116.11" x2="1478.42" y2="116.11"></line><line class="cls-17" x1="1549.43" y1="75.11" x2="1549.43" y2="75.11"></line><line class="cls-17" x1="1493.42" y1="131.12" x2="1493.42" y2="131.12"></line><line class="cls-17" x1="1534.42" y1="60.1" x2="1534.42" y2="60.1"></line><path class="cls-4" d="M1916.36,197.56c-15.48,18.83-1.3,48,11.39,28.83,5.21-7.88,1.68-31.57-8.85-30A4.27,4.27,0,0,0,1916.36,197.56Z"></path><path class="cls-4" d="M1898.65,179.43c.61,5.84,6.65,6.46,7.81,1.79.84-3.38-1.93-7.8-5.67-7.15C1898.56,174.45,1898.41,177.17,1898.65,179.43Z"></path><path class="cls-4" d="M1920.92,167c-6.21,6.16-.54,17.78,8.35,17.37a10,10,0,0,0,9.22-10.19c0-5.28-4-10.35-9.79-10.44A10.87,10.87,0,0,0,1920.92,167Z"></path><path class="cls-2" d="M1886.12,206.17a3.79,3.79,0,0,0-.95,2.53,4.27,4.27,0,1,0,8.53-.25,4.19,4.19,0,0,0-3.88-4.16,4.34,4.34,0,0,0-.54,0A4.75,4.75,0,0,0,1886.12,206.17Z"></path></g><g id="Floor"><path class="cls-18" d="M1942.9,358.84h4.2"></path><path class="cls-18" d="M1650,358.81c92-.05,185-.05,276.78,0"></path><path class="cls-18" d="M92.61,358.84c510.39-.08,1018.39-.08,1528.07,0"></path><path class="cls-18" d="M72.33,358.84h9.79"></path><path class="cls-18" d="M47.84,358.84c5.16-.09,9.16-.09,14.51,0"></path><path class="cls-18" d="M1894.79,368.57a55.13,55.13,0,0,0,7.8,0"></path><path class="cls-18" d="M1877.12,368.58h7.69"></path><path class="cls-18" d="M1777.18,368.61l89.45,0"></path><path class="cls-18" d="M1547.24,368.66c66.76.1,133.76.1,200.6,0"></path><path class="cls-18" d="M728.48,368.72c257.52,0,514.52,0,772.65-.05"></path><path class="cls-18" d="M90.54,368.57q273.7.28,546.34.14"></path><path class="cls-18" d="M1673.18,381.07c63.82-.32,128.82-.32,192.63,0"></path><path class="cls-18" d="M1560.74,381q51.38-.38,102.15.06"></path><path class="cls-18" d="M1252.27,380.88c87.73-.12,176.73-.12,264.4.11"></path><path class="cls-18" d="M648.93,380.82c198.07-.06,395.07-.06,592.85.06"></path><path class="cls-18" d="M175.56,381C324,380.76,473,380.76,621,380.83"></path><path class="cls-18" d="M155.45,381.07l9,0"></path><path class="cls-18" d="M1761.78,397.73h44.5"></path><path class="cls-18" d="M1738.07,397.74h13.27"></path><path class="cls-18" d="M1409.3,397.76c105.7,0,212.7,0,318.29,0"></path><path class="cls-18" d="M1297.79,397.75h101.05"></path><path class="cls-18" d="M734.86,397.75q276.2,0,551.74,0"></path><path class="cls-18" d="M709.72,397.75h14.67"></path><path class="cls-18" d="M368,397.73c106,0,213,0,319.35,0"></path><path class="cls-18" d="M337.95,397.73h19.58"></path><path class="cls-18" d="M268,397.72h58.76"></path><path class="cls-18" d="M199,397.72c11,0,21,0,31.94,0"></path><path class="cls-18" d="M1714.14,421l6.28,0"></path><path class="cls-18" d="M1506.89,420.83c66.11-.07,131.11-.07,196.79.12"></path><path class="cls-18" d="M1472.25,420.87l17.33,0"></path><path class="cls-18" d="M625.84,421c275.16-.24,549.16-.24,824.06-.13"></path><path class="cls-18" d="M295.31,420.93q157-.26,314.91.07"></path><path class="cls-18" d="M277.84,421h7"></path><path class="cls-18" d="M258.48,421l9,0"></path></g><g id="Sofa"><path class="cls-12" d="M1008.09,207.48h132.53a8.09,8.09,0,0,1,8.09,8.09v72a0,0,0,0,1,0,0H1000a0,0,0,0,1,0,0v-72A8.09,8.09,0,0,1,1008.09,207.48Z"></path><circle class="cls-19" cx="1022.1" cy="237.38" r="1.71"></circle><circle class="cls-19" cx="1048.22" cy="237.38" r="1.71"></circle><circle class="cls-19" cx="1074.35" cy="237.38" r="1.71"></circle><circle class="cls-19" cx="1100.48" cy="237.38" r="1.71"></circle><circle class="cls-19" cx="1126.61" cy="237.38" r="1.71"></circle><circle class="cls-19" cx="1022.1" cy="262.14" r="1.71"></circle><circle class="cls-19" cx="1048.22" cy="262.14" r="1.71"></circle><circle class="cls-19" cx="1074.35" cy="262.14" r="1.71"></circle><circle class="cls-19" cx="1100.48" cy="262.14" r="1.71"></circle><circle class="cls-19" cx="1126.61" cy="262.14" r="1.71"></circle><path class="cls-12" d="M1206.17,340.71h-34.68V243.78l-4.26-2.21,2-.47a20.1,20.1,0,0,1,4.65-.55h29.46a2.87,2.87,0,0,1,2.87,2.87Z"></path><rect class="cls-12" x="990.41" y="295.45" width="188.49" height="32.49"></rect><path class="cls-19" d="M1148.71,313.13l22.85,5V244.16a2.87,2.87,0,0,0-3.52-2.79l-19.33,4.53Z"></path><polygon class="cls-20" points="851.35 313.18 1148.93 313.18 1171.55 318.1 828.78 318.1 851.35 313.18"></polygon><polygon class="cls-20" points="1126.61 291.55 1148.93 313.18 1109.34 315.64 1009.09 315.64 1000.17 313.18 1031.63 295.69 1126.61 291.55"></polygon><polygon class="cls-7" points="784.14 350.71 1159.78 350.71 1204.81 371.67 723.9 371.67 784.14 350.71"></polygon><polygon class="cls-7" points="681.81 359.12 773.85 359.12 742.25 370.07 637.36 370.07 681.81 359.12"></polygon><path class="cls-19" d="M1134.87,337.69l7.51,31.52c0,1.06,1.36,1.92,3,1.92s3-.86,3-1.92l-1.72-31.52Z"></path><path class="cls-19" d="M865.13,337.69l-7.51,31.52c0,1.06-1.36,1.92-3,1.92s-3-.86-3-1.92l1.72-31.52Z"></path><polygon class="cls-12" points="1188.71 340.7 809.38 340.7 828.51 318.32 1171.49 318.32 1188.71 340.7"></polygon><path class="cls-12" d="M828.51,340.71H793.83V243.42a2.87,2.87,0,0,1,2.87-2.87h27.79a34.75,34.75,0,0,1,7.93.92h0l-3.91,2.45Z"></path><path class="cls-2" d="M851.35,287.52l-22.84,7.09V244.17a2.87,2.87,0,0,1,3.52-2.79l19.32,4.53Z"></path><path class="cls-6" d="M833.66,287.5H1000a0,0,0,0,1,0,0v30.82a0,0,0,0,1,0,0H828.51a0,0,0,0,1,0,0V292.65A5.14,5.14,0,0,1,833.66,287.5Z"></path><line class="cls-21" x1="828.51" y1="318.32" x2="1000" y2="318.32"></line><path class="cls-12" d="M859.44,207.48H991.91a8.09,8.09,0,0,1,8.09,8.09v72a0,0,0,0,1,0,0H851.35a0,0,0,0,1,0,0v-72A8.09,8.09,0,0,1,859.44,207.48Z"></path><rect class="cls-19" x="1150.89" y="280.28" width="4.04" height="4.95"></rect><path class="cls-7" d="M1164.23,262.39a2.59,2.59,0,0,0-1-3.35c-18.18-11.35-64.29-36.58-114.85-36.58H1000V253.2h48.43c41.63,0,80.25,17.11,102.74,29.49a2.58,2.58,0,0,0,3.55-1.11Z"></path><path class="cls-22" d="M1000,253.2l.17,60h148.77l4.58-29.18c-22.08-12.44-62-30.8-105.09-30.8Z"></path><polygon class="cls-20" points="1165.27 260.3 1148.93 313.18 1153.52 284 1165.27 260.3"></polygon><path class="cls-20" d="M909.75,176.15a31.55,31.55,0,0,1,8.44-7.7.65.65,0,0,1,1,.7l-.87,3.53a.68.68,0,0,0,0,.28.69.69,0,0,0,.26.36,54,54,0,0,1,7,7.61l4.63-1.92a1.36,1.36,0,0,1,1.17-.1c-1.26,5-4.55,9.23-7.89,13.16-.13.16-.49.22-.45,0"></path><path class="cls-19" d="M882.26,197c.75-6.2,5.46-14.55,7.45-17,7.26-8.78,30.62-12.72,30.37,2.44a46.12,46.12,0,0,1-4.18,18.38"></path><path class="cls-19" d="M887.55,193.28a5.1,5.1,0,0,0-8.75-3.36c-3.67,3.81-.63,13.61,1.61,18.26,2.58,5.38,5.87,2.94,10,2.36,5.24-.73,10.25,3.29,12.29,8.17,3.5,8.39,0,17.28.88,22.46,2,11.24,18.6,13.13,24.33,3.31,3.19-5.47.41-11.34-1.08-12-.94-.4-2,.61-2.09,1.63a10.21,10.21,0,0,0,.49,3c1.87,10.13-17.73,13.89-15.85-.15.42-3.16,1-7.8,1.27-11,.75-8.15-4-13.82,8.1-17.59,3.3-1,5.13-1.61,6.5-5.74,4.14-12.44-3.8-23.32-12.74-11"></path><circle class="cls-19" cx="873.42" cy="237.38" r="1.71"></circle><circle class="cls-19" cx="899.55" cy="237.38" r="1.71"></circle><circle class="cls-19" cx="925.68" cy="237.38" r="1.71"></circle><circle class="cls-19" cx="951.8" cy="237.38" r="1.71"></circle><circle class="cls-19" cx="977.93" cy="237.38" r="1.71"></circle><circle class="cls-19" cx="873.42" cy="262.14" r="1.71"></circle><circle class="cls-19" cx="899.55" cy="262.14" r="1.71"></circle><circle class="cls-19" cx="925.68" cy="262.14" r="1.71"></circle><circle class="cls-19" cx="951.8" cy="262.14" r="1.71"></circle><circle class="cls-19" cx="977.93" cy="262.14" r="1.71"></circle><path class="cls-20" d="M903.58,241.18a11.12,11.12,0,0,0,5.8,8c-2.34-2.84-3.06-6.73-3-10.42.06-7.23,2.52-14.84-.39-21.46-1-2.37-2.77-4.59-2.82-7.18,0-2,1-4,.67-6-.35-2.33-2.37-4-4.42-5.18s-4.32-2.05-5.91-3.79c-2.71-3-2.66-7.66-1-11.29s4.74-6.42,7.71-9.12a16.73,16.73,0,0,1,2-1.62c-5,1.21-9.88,3.78-12.55,7a43.4,43.4,0,0,0-5,8.83,5,5,0,0,0-5.91,1c-3.67,3.81-.63,13.61,1.61,18.26,2.58,5.38,5.87,2.94,10,2.36,5.24-.73,10.25,3.29,12.29,8.17C906.2,227.11,902.67,236,903.58,241.18Z"></path><path class="cls-22" d="M1045.2,253.2c9,0,8-4.87,13.17-4.87s-1,4.29,11.07,6.26,4.34,11.65,4.34,11.65Z"></path><path class="cls-7" d="M721.16,364.93h200L904.22,383H693.56c-5.46,0-6.57-7.76-1.33-9.34Z"></path><polygon class="cls-7" points="923.8 371.22 1007.57 371.22 1008.18 378.53 917.65 378.53 923.8 371.22"></polygon></g><g id="guy"><path class="cls-22" d="M914.88,372.72c18-30-4.72-68.83-18.47-73.53-3-1-4,.11-4.57,2-4.44,15.24,1.58,31.29,3.64,47a4,4,0,0,1-.38,2.91c-1.28,1.75-24.11,9.58-43.61,13.53-9.92,2-10.42-1.24-13.65-2.87-8.05-4.06-17.28,8.57-26.13,10.26a33.27,33.27,0,0,0-5.41,1c-1.72.64-3.31,2.19-3.19,4h102C913,377,914.88,372.72,914.88,372.72Z"></path><path class="cls-12" d="M986.88,367.66c0,3.14,7.88-2,12.8,3,.31.31.76.83.43,1.13-2,1.82-7.68,2-10.25,1.52a5.52,5.52,0,0,1-1.66-.52A2.57,2.57,0,0,1,987,371.6"></path><path class="cls-2" d="M1007.53,259.87a73.07,73.07,0,0,0,8-3.55c3.21-1.75,10.77-7.36,18.33-4.81,2.91,1,7.89,4.48,9.78,7.16a24.15,24.15,0,0,1,3.19,7.69,13.72,13.72,0,0,1-4.76,11.53c-4.69,4.07-9.38,3.22-10.74,3.65-2.37.76-3.17,4.46-12.36,1.65-4.35-1.33-4-1.09-12.23.59"></path><path class="cls-12" d="M1031.44,253a25.82,25.82,0,0,0-2.18-2.14c-6,.21-11.23,4.09-14.18,5.65-.54,1.26-.63,2.87-.59,6.71.11,10.69,6.42,6.05,15.83,9.78a3.84,3.84,0,0,1,1.61,1,1.45,1.45,0,0,1,.15,1.76c-.35.44-3,1.4-3.58,1.63-.39.7.52,1.52,1.33,1.46a8.21,8.21,0,0,0,2.24-.89c2.3-.9,6.78.81,7.5-5.62.58-5.19-1.79-10.26-4.62-14.64A37.13,37.13,0,0,0,1031.44,253Z"></path><path class="cls-2" d="M989,370.73c14.35-1.89,14.7-1.88,17.62-.68s9.93,5.77,6.24,7.28c-3.14,1.28-9.1-1.69-14.24-2.59a46.81,46.81,0,0,0-9.27-.39"></path><path class="cls-2" d="M1044.71,235.07c1.9.92,2.86,3.11,4.64,4.24,1.47.93,6.06,1.66,7.88,6.92.44,1.26-.21,1.77,0,2.52a1.23,1.23,0,0,0,1.58.63c2.93-1.14-.57-9.17.9-13.58a2.22,2.22,0,0,0,.2-1c-.11-.69-2.92-3.61-3.62-4-2.16-1.19-7.53-.36-10.92-2.09-1.69-.87-2.59-.44-3.13,2.38"></path><path class="cls-2" d="M1059.36,233.93c2.59,2.52,4.12,4.24,2.9,7.62-.25.68-2,4.09-2.67,4.11-.34,0-.53-.38-.63-.7-1.28-4-2.25-5.73-.93-9.63"></path><rect class="cls-23" x="425.41" y="68.44" width="287.33" height="168.51"></rect><polygon class="cls-5" points="511.72 162.52 506.56 161.19 493.77 152.06 485.17 155.65 487.38 159.8 482.96 165.64 481.11 170.1 482.96 178.63 495.34 186.55 493.77 209.81 500.02 221.07 503.33 221.07 504.08 212.93 510.63 196.7 525.59 181.72 526.71 171.73 513.25 167.41 511.72 162.52"></polygon><polygon class="cls-5" points="478.35 148.16 468.85 146.46 469.35 137.43 479.1 136.3 484.89 141.13 489.09 139.57 486.96 131.78 499.38 121.08 509.69 120.38 511.94 113.82 516.25 108.98 503.91 103.68 496.9 112.26 488.5 107.73 490.65 101.8 502.26 97.91 496.72 94.33 484.89 99.31 473.04 95.75 458.81 96.56 453.51 94.08 441.18 97.56 436.44 103.6 439.15 107.89 447.58 104.34 455.54 106.17 454.94 116.78 448.82 125.37 451.79 133.8 458.35 136.14 459.75 147.53 468.33 150.66 474.42 150.34 479.1 158.49 481.11 156.12 478.35 148.16"></polygon><polygon class="cls-5" points="547.78 90.06 551.11 87.44 551.11 84.95 532.33 86.2 520 84.32 505.6 87.44 508.65 92.34 520.47 88.19 526.71 94.94 522.34 99.31 525.59 105.71 536.23 96.58 545.59 94.33 547.78 90.06"></polygon><path class="cls-5" d="M661.71,141.76l3.16,4.7,5.4-5.72.95-5.95-6.73-8.13,3.38-2.69,6.38,6.54,2.77-2-3.46-5,1.11-2.7,3.24-1.71v-8.4l-7.42,0-2.12-4.26,6.92-2.15,4.19,1.26,3.92-2.79,2.82.87-1.12,6.09,5,2.63,1.56-3.41-2.36-4.85,5.1-5.76L675.92,96H653.6l-13-3.71-9.83,1.83,1.1-3.65H620.73l-6.11,3.65-1.14,4.6-2.19-.83-2.19-3.77L606,95v3.2l-6.63-1-10.94,4.26-2.78-2.84,4.07-.15.39-2.49-12.39-1-12.74,7.81,1.25,3.3,5.46,2.65,4.21-3.59-.78-3.28,3.9-1.72,2.18,5.46-6.09,5.77-8.48-.35-10.88,5.66,2.81,3.43-5,.59-2.45,2.53,1.74,4.4h6l6.56-6.92,8.2,4.16-2.89,2.77,1.09,1.23,5-2.68-2.51-5.08,3.29-.39,1.63,6.92,5.08-2.85,2.19,4.08h5.76L589,133.72l-11.89-2.58L567,132.4,561.38,129l-7.46,1.25L549,136.42l-4.82,4.4v7.34l-3.12,4.59,10.63,9,9.82-3.23,6.48,4.15v4.92l4.91,5.54-2.42,11.33,4.13,7v7.18l3.75,4.28h5.3l7.8-9.53v-4.89s6.87-11.24,6.87-12.64V164.95l7.6-9.73v-3.55l-10.88-1.17L591,136.79l1.26-1.27,7.33,13.12L610.05,151l5-7-4.86-3.28-4.23,2.5-2.63-8.43,1.58-1.09,11.24,7.65,9.52.62,7.15,15.57h2.52l1.09-8.46,7-5.92,8.23,6.69,2.33,7.69,7.41-1.43,2-3.31-5.93-7.24Z"></path><polygon class="cls-5" points="601.59 183.63 600.06 191.78 601.98 193.09 604.59 191.39 605.06 188.27 606.67 182.4 606.13 179.79 601.59 183.63"></polygon><polygon class="cls-5" points="696.83 179.79 694.64 179.79 694.42 185.62 688.23 182.29 687.93 178.63 683.88 178.63 683.28 183.74 680.27 181.5 676.23 183.43 674.67 187.65 666.95 189.78 666.95 198.26 664.87 202.16 666.72 202.78 677.16 198.73 685.25 202.54 688.47 206.62 695.11 206.62 701.01 197.62 701.7 192.17 698.41 188.11 696.83 179.79"></polygon><polygon class="cls-5" points="653.35 162.37 651.11 161.18 651.11 162.67 656.56 172.57 659.56 173.1 660.72 171.1 657.18 165.49 653.35 162.37"></polygon><polygon class="cls-5" points="670.02 169.95 672.56 165.79 672.67 159.8 670.87 159.8 668.37 163.77 664.07 164.95 664.87 170.1 670.02 169.95"></polygon><polygon class="cls-5" points="685.94 167.49 686.48 170.33 691.78 173.33 695.74 174.53 699.64 177.94 701.7 175.99 696.86 170.84 692.62 170.1 685.94 167.49"></polygon><polygon class="cls-5" points="491.25 94.33 491.25 92.25 486.26 93.24 480.71 91.71 477.38 93.54 484.34 96.56 491.25 94.33"></polygon><polygon class="cls-5" points="507.51 100.09 510.52 102.63 514.9 101.01 513.92 94.14 502.45 93.98 504.33 96.56 509.51 96.56 509.51 99.17 507.51 100.09"></polygon><circle class="cls-24" cx="617.74" cy="115.13" r="2.03"></circle><circle class="cls-24" cx="589.49" cy="123.51" r="2.03"></circle><circle class="cls-24" cx="486.35" cy="121.48" r="2.03"></circle><circle class="cls-24" cx="469.08" cy="148.68" r="2.03"></circle><circle class="cls-24" cx="581.77" cy="194.66" r="2.03"></circle><circle class="cls-24" cx="505.22" cy="197.86" r="2.03"></circle><circle class="cls-24" cx="516.25" cy="180.71" r="2.03"></circle><circle class="cls-24" cx="679.07" cy="190.59" r="2.03"></circle><rect class="cls-1" x="276.14" y="68.44" width="114.33" height="168.51"></rect><path class="cls-24" d="M1013.29,230.45s-1.73-6.3-8.25-7.61a55.68,55.68,0,0,0-8.26,20.27c-1.4,7.46-1.28,15.25-3.76,22.43s-8.63,13.95-16.22,13.79c-7.3-.15-13.06-6.45-20.19-8.06-7.84-1.77-15.88,2.47-21.76,8s-10.44,12.29-16.56,17.52L917,297.84c5.75,3.95,12.72,6.09,19.54,5a50.68,50.68,0,0,0,5.5-1.63,15.57,15.57,0,0,1,4.6-1.28l38.28-6.39,0-.25a48.13,48.13,0,0,0,17.41-4.19c9.26-4.18,9.74-8.39,9.72-11.86-.1-15.69,0-26.5-1.14-35,.08-6.12-1.41-5,2.43-11.78Z"></path><path class="cls-25" d="M934.85,279.23c5.88-5.48,13.91-9.72,21.76-8,7.13,1.61,12.89,7.9,20.19,8.06,7.59.16,13.75-6.61,16.22-13.79s2.36-15,3.76-22.43a55.68,55.68,0,0,1,8.26-20.27,11.89,11.89,0,0,0-1.75-.23c-.56-.74-1.14-1.48-1.78-2.23l-2.63,1.88c-.66.86-1.34,1.69-2,2.5l-1.24,1.34-.15.2c-11.37,12.33-27.56,19.55-43.46,25.39-17.57,6.45-36,12-50.6,23.68l-.37.3c2.6,6.66,6.05,13,11,18.06a33.81,33.81,0,0,0,4.92,4.1l1.31-1.09C924.41,291.52,929,284.71,934.85,279.23Z"></path><path class="cls-20" d="M904,315c.31,10.29,15.05,16.17,14.31,26.43-.41,5.69-5.73,10.4-5.26,16.08.24,2.87,2,5.6,1.52,8.45s-3.3,5.12-6.23,5.83c-6.34,1.54-18.5-3.06-39.46,3.47-2.19.68-4.39,1.46-6.61,2v5h59.5c4.49.44,8.41-1.82,10.92-5.57s3.17-9.3,3.33-13.84c.19-5.68.16-11.37.29-17q.41-17.22,1.26-34.43c.17-3.51.59-7.47,3.38-9.62a6.72,6.72,0,0,1,1-.64,50.68,50.68,0,0,1-5.5,1.63c-6.82,1.14-13.79-1-19.54-5C911.05,302.68,903.83,307.57,904,315Z"></path><path class="cls-26" d="M901,275.67a37.35,37.35,0,0,0-7.4,7.61c-7.38,10.63-5.72,25.13-1.44,37.34,3.5,10,8.54,19.41,11.31,29.66.41,1.5,2.08,6,1,7-.63.59-3.17.66-4,.86-19.54,4.25-30.48,8.37-38.11,9.94v9.27c2.22-.57,4.42-1.35,6.61-2,21-6.53,33.11-1.93,39.46-3.47,2.93-.71,5.76-2.85,6.23-5.83s-1.28-5.58-1.52-8.45c-.47-5.68,4.85-10.39,5.26-16.08.74-10.27-14-16.14-14.31-26.43-.22-7.48,7-12.36,12.93-17.21a33.81,33.81,0,0,1-4.92-4.1C907.07,288.67,903.62,282.34,901,275.67Z"></path><path class="cls-24" d="M1011.78,272.14c-4.22-2.32-13.12-2.11-18.81,6-1.6,2.27-4.08,7.58-6.75,14,3.1-3.6,7.61-4.8,9.35-4.23A4,4,0,0,1,998,292c-.17,3.69-5.28,10.46-10.14,18,.11.08.21.17.33.25a12.41,12.41,0,0,0,12,.92,15.47,15.47,0,0,0,3.1-2l.5-.84C1011.17,295.81,1012.65,290.79,1011.78,272.14Z"></path><path class="cls-25" d="M995.57,287.92c-1.75-.57-6.26.63-9.35,4.23-1.11,2.68-2.25,5.54-3.38,8.48a12.45,12.45,0,0,0,5,9.31c4.86-7.49,10-14.26,10.14-18A4,4,0,0,0,995.57,287.92Z"></path><path class="cls-24" d="M832,382.29a12,12,0,0,0,.72-1.49c.87-2.22.85-4.72,1.81-6.91,0-.09.09-.17.13-.26-4.74.35-10.14,2.57-16.75,8.65Z"></path><path class="cls-25" d="M836.78,371.36a9.64,9.64,0,0,1,4.1-2.07c.85-.13,1.72,0,2.58-.08a7.15,7.15,0,0,0,5.21-2.88c-2.3-1.5-4.32-3.58-7-4.1-8.05-1.56-15.09,11.06-24,13.19-2.12.5-4.37.49-6.42,1.24s-4,3.47-3.73,5.64H818c6.61-6.09,12-8.3,16.75-8.65a5,5,0,0,1,.67-1.07A7.83,7.83,0,0,1,836.78,371.36Z"></path><path class="cls-2" d="M834.7,373.64c0,.09-.09.17-.13.26-1,2.18-.93,4.69-1.81,6.91a12,12,0,0,1-.72,1.49h30.28v-5a22.12,22.12,0,0,1-6.19.81C849.06,377.94,842.86,373,834.7,373.64Z"></path><path class="cls-12" d="M849.33,366.74c-.23-.13-.45-.28-.67-.42a7.15,7.15,0,0,1-5.21,2.88c-.86.05-1.73-.05-2.58.08a9.64,9.64,0,0,0-4.1,2.07,7.83,7.83,0,0,0-1.4,1.21,5,5,0,0,0-.67,1.07c8.15-.6,14.35,4.3,21.44,4.52a22.12,22.12,0,0,0,6.19-.81v-9.27C857,369.17,853.24,369,849.33,366.74Z"></path><path class="cls-14" d="M1040.86,225.79c-16.95-10.31-22.22-13.67-26.53-13.74a55.74,55.74,0,0,0-9.27,10.77c6.52,1.31,8.24,7.63,8.24,7.63h0c.55-1,1.21-2.11,2-3.46a1.28,1.28,0,0,1,1.78-.74c25.46,6.38,30,11.82,32.44,9.17C1052.19,232.47,1045.19,228.43,1040.86,225.79Z"></path><path class="cls-2" d="M1056.76,245.28c-1.72-1.31-4.27-.85-4.58-4.49-.14-1.62.28-3.88-1.6-6.26l-.56,0c.75-2.83-5.27-6.33-9.16-8.7-16.95-10.31-22.22-13.67-26.53-13.74a55.74,55.74,0,0,0-9.27,10.77c6.52,1.31,8.24,7.63,8.24,7.63h0c.55-1,1.21-2.11,2-3.46a1.28,1.28,0,0,1,1.78-.74,183.68,183.68,0,0,1,25.32,8.15c3.05,2.35,2.71,6.21,4.44,8.52.91,1.21,7,5.63,10,3.88C1057.58,246.39,1057.36,245.74,1056.76,245.28Z"></path><path class="cls-12" d="M1050.93,245.88c-4.14-5.49-1.48-10.12-11.33-14.62-3.33-1.52-16.75-6.88-19.48-6.69a5.26,5.26,0,0,0-3.55,1.59,3.62,3.62,0,0,1,.51.1,183.68,183.68,0,0,1,25.32,8.15c3.05,2.35,2.71,6.21,4.44,8.52a15.29,15.29,0,0,0,4.12,3Z"></path><path class="cls-12" d="M1014.33,212.05h-.53c-3.43.16-7.07,2.28-15.43,11.1a15,15,0,0,1,6.7-.34A55.74,55.74,0,0,1,1014.33,212.05Z"></path><ellipse class="cls-20" cx="986.65" cy="367.66" rx="1.6" ry="3.01" transform="translate(-57.23 229.96) rotate(-12.92)"></ellipse><path class="cls-2" d="M990.7,370.45c-3-.3-3.54-.9-3.88-3.25.17-4.58.43-12.23.91-25.13.44-11.83,2.5-11,15.57-33a15.47,15.47,0,0,1-3.1,2,12.41,12.41,0,0,1-12-.92c-.11-.08-.22-.17-.33-.25-5.12,7.9-10,16.6-8.4,23.38.49,2.15,1.57,4.16,1.87,6.35.45,3.32-.92,6.59-1.53,9.88-1.19,6.45.58,13,2.33,19.36a21.62,21.62,0,0,0,2.66,6.63,13.14,13.14,0,0,0,3.59,3.43c9.93.75,8.06-2.94,14.74-.27,1.18.47,4.7,2.12,6-.38C1003.43,374.65,997.4,371.12,990.7,370.45Z"></path><path class="cls-12" d="M984.76,375.53a21.62,21.62,0,0,1-2.66-6.63c-1.75-6.32-3.52-12.91-2.33-19.36.61-3.3,2-6.56,1.53-9.88-.3-2.19-1.38-4.19-1.87-6.35-1.56-6.78,3.28-15.48,8.4-23.38a12.45,12.45,0,0,1-5-9.31c-4.9,12.76-9.52,26.68-9.79,30.63-.56,8,5.49,43,8.11,44.07,1.64,2.84,3.22,3.25,5.9,3.53l1.29.11A13.14,13.14,0,0,1,984.76,375.53Z"></path><polygon class="cls-5" points="561.79 110.62 564.43 109.24 563.38 105.71 561.79 106.23 561.79 110.62"></polygon><circle class="cls-24" cx="561.08" cy="106.13" r="2.03"></circle><path class="cls-20" d="M1022.48,252.32c2.89-1.89,8.35-4.83,10.92-5.15,7.54-.94,15.92,11.53,17.22,14,2.38,4.54-.51,12.37-11.2,18.53"></path><path class="cls-24" d="M1041.14,261.25l-10.59-5.08,1.09,3.4L1027,273.3a26.32,26.32,0,0,0,4.59,3.09c5.38,2.88,11.34,4.46,17.24,6,2.87.76,4.88.38,5.32-3.86C1055.17,268.43,1050.14,265.61,1041.14,261.25Z"></path><path class="cls-20" d="M1030.54,256.16l-8.11-3.9c-2.92,5.45-3.34,14.36,4.55,21l4.65-13.73Z"></path><path class="cls-20" d="M1041.53,257.29l-19-5,0,0-2,8.46c.23,5.41,3.14,11.36,11.06,15.6a50.94,50.94,0,0,0,7.84,3.3c6.74-3.88,10.38-8.43,11.55-12.4C1048.7,265,1045.76,259.34,1041.53,257.29Z"></path><path class="cls-19" d="M1042.38,254.5a3.29,3.29,0,0,0,1.73,2.28c.7.35,1.3,0,.78-1.13-.39-.82-2.5-2.2-2.5-1.15"></path><path class="cls-25" d="M979,370.32a10.3,10.3,0,0,0,8.39-1.11l-.55-3.51a11.3,11.3,0,0,1-8.84.69Z"></path></g><g id="sideboard"><polygon class="cls-7" points="703.56 356.77 278.66 356.77 107.19 374.84 633.1 374.84 703.56 356.77"></polygon><line class="cls-27" x1="389.57" y1="331.86" x2="389.57" y2="359.84"></line><line class="cls-27" x1="668.58" y1="331.86" x2="668.58" y2="359.84"></line><polygon class="cls-2" points="712.74 334.91 675.52 341.93 675.52 268.96 712.74 270.32 712.74 334.91"></polygon><rect class="cls-12" x="229.1" y="271.85" width="73.89" height="67.24"></rect><polygon class="cls-2" points="333.31 269.54 324.57 269.39 324.57 230.86 333.31 231.5 333.31 269.54"></polygon><polygon class="cls-2" points="302.64 268.93 295.33 268.81 295.33 233.23 302.64 233.72 302.64 268.93"></polygon><polygon class="cls-2" points="294.7 255.79 288.02 255.56 288.02 228.6 294.7 229.09 294.7 255.79"></polygon><rect class="cls-6" x="273.4" y="235.73" width="7.31" height="33.2"></rect><rect class="cls-7" x="280.71" y="228.61" width="7.31" height="40.33"></rect><rect class="cls-6" x="288.02" y="233.23" width="7.31" height="35.7"></rect><rect class="cls-7" x="295.33" y="240.11" width="7.31" height="28.82"></rect><rect class="cls-6" x="302.64" y="237.87" width="7.31" height="31.06"></rect><rect class="cls-7" x="309.95" y="233.86" width="7.31" height="35.07"></rect><rect class="cls-6" x="317.26" y="230.86" width="7.31" height="38.07"></rect><path class="cls-6" d="M672.41,271.85v67.24H229.1V271.85H672.41m3-3H226.1v73.24H675.41V268.85Z"></path><rect class="cls-5" x="302.99" y="271.85" width="73.89" height="67.24"></rect><rect class="cls-7" x="376.87" y="271.85" width="73.89" height="67.24"></rect><rect class="cls-12" x="427.37" y="271.85" width="23.39" height="3.08"></rect><rect class="cls-7" x="450.76" y="271.85" width="73.89" height="67.24"></rect><rect class="cls-7" x="524.64" y="305.47" width="147.77" height="33.62"></rect><line class="cls-27" x1="1330.12" y1="327.37" x2="1330.12" y2="361"></line><line class="cls-27" x1="1467.12" y1="327.37" x2="1467.12" y2="361"></line><path class="cls-28" d="M1390.21,189.38l-8.78,19.14a25.8,25.8,0,0,0-2.35,10.76v28"></path><path class="cls-5" d="M1369,173.69c-1.35,2.22-1.25,4.75.24,5.66L1393.28,203l28.09-15.83-47.27-15.83C1372.61,170.42,1370.31,171.48,1369,173.69Z"></path><path class="cls-5" d="M1401.47,258.37a23.72,23.72,0,0,0-44.79,0Z"></path><rect class="cls-12" x="1345.72" y="258.42" width="107.59" height="69.31"></rect><polygon class="cls-5" points="1385.51 336.7 1537.51 336.7 1453.31 327.94 1325.12 327.94 1385.51 336.7"></polygon><polygon class="cls-7" points="1538.67 373.39 1304.25 373.39 1257.08 359.03 1455.16 359.03 1538.67 373.39"></polygon><line class="cls-27" x1="1392" y1="339.22" x2="1392" y2="372.86"></line><line class="cls-27" x1="1529" y1="339.22" x2="1529" y2="372.86"></line><polygon class="cls-7" points="1323.7 258.42 1455.07 258.42 1537.27 253.98 1385.98 253.98 1323.7 258.42"></polygon><rect class="cls-7" x="1480.93" y="251.67" width="56.33" height="8.69"></rect><polygon class="cls-6" points="1453.31 327.94 1537.43 336.7 1537.43 254.28 1453.31 258.42 1453.31 327.94"></polygon><path class="cls-7" d="M1537.27,254v82.73H1385.51V254h151.76m4-4H1381.51v90.73h159.76V250Z"></path><line class="cls-29" x1="1385.51" y1="295.34" x2="1537.27" y2="295.34"></line><rect class="cls-14" x="1453.31" y="253.98" width="27.62" height="39.09" transform="translate(2934.24 547.05) rotate(180)"></rect><rect class="cls-2" x="1385.51" y="253.98" width="67.8" height="39.09"></rect><line class="cls-17" x1="1395" y1="262.43" x2="1395" y2="285.81"></line><line class="cls-17" x1="1471.51" y1="262.43" x2="1471.51" y2="285.81"></line><path class="cls-2" d="M1370.73,171.78l41.17,20.72,9.48-5.34-47.27-15.83A3.11,3.11,0,0,0,1370.73,171.78Z"></path><ellipse class="cls-12" cx="1407.51" cy="195.19" rx="16.13" ry="4.95" transform="translate(69.1 672.52) rotate(-27.52)"></ellipse><polygon class="cls-6" points="1321.97 331.36 1381.65 340.74 1381.65 250.16 1321.97 254.94 1321.97 331.36"></polygon><line class="cls-30" x1="524.64" y1="274.93" x2="524.64" y2="339.09"></line><rect class="cls-5" x="524.64" y="271.85" width="147.77" height="33.62"></rect><rect class="cls-19" x="575.14" y="305.47" width="46.78" height="3.08"></rect><rect class="cls-19" x="575.14" y="271.85" width="46.78" height="3.08"></rect><rect class="cls-12" x="450.76" y="271.85" width="23.39" height="3.08"></rect><rect class="cls-12" x="302.99" y="271.85" width="23.39" height="3.08"></rect><rect class="cls-1" x="279.6" y="271.85" width="23.39" height="3.08"></rect><line class="cls-27" x1="298.04" y1="342.22" x2="298.04" y2="372.86"></line><line class="cls-27" x1="603.48" y1="342.22" x2="603.48" y2="372.86"></line><polygon class="cls-2" points="631.84 308.55 672.41 305.48 672.41 271.85 631.84 270.75 631.84 308.55"></polygon><rect class="cls-5" x="466.33" y="270.89" width="165.5" height="37.65"></rect><rect class="cls-12" x="522.88" y="270.89" width="52.4" height="3.45"></rect><polygon class="cls-7" points="256.48 344.26 229.1 339.97 229.1 271.85 256.48 271.2 256.48 344.26"></polygon><rect class="cls-2" x="256.48" y="271.21" width="4" height="73.05"></rect><line class="cls-30" x1="450.76" y1="274.93" x2="450.76" y2="339.09"></line><line class="cls-30" x1="376.87" y1="274.93" x2="376.87" y2="339.09"></line></g><g id="Lamp"><path class="cls-12" d="M795.43,364.48c-7.32,3-31.34,5.58-53.17,5.58s-30.91-2.59-20.94-5.58c9.3-2.79,32-4.93,51.28-4.93S802.25,361.69,795.43,364.48Z"></path><rect class="cls-12" x="717.29" y="359.12" width="31.66" height="7.68"></rect><rect class="cls-12" x="765.87" y="355.28" width="31.66" height="7.68"></rect><path class="cls-12" d="M795.43,364.48c-7.32,3-31.34,5.58-53.17,5.58s-30.91-2.59-20.94-5.58c9.3-2.79,32-4.93,51.28-4.93S802.25,361.69,795.43,364.48Z"></path><path class="cls-5" d="M795.43,356.84c-7.32,2.72-31.34,5.07-53.17,5.07s-30.91-2.35-20.94-5.07c9.3-2.54,32-4.48,51.28-4.48S802.25,354.3,795.43,356.84Z"></path><path class="cls-5" d="M795.43,356.84c-7.32,2.72-31.34,5.07-53.17,5.07s-30.91-2.35-20.94-5.07c9.3-2.54,32-4.48,51.28-4.48S802.25,354.3,795.43,356.84Z"></path><path class="cls-31" d="M988.79,93.07a140.83,140.83,0,0,0-157-32.74c-53.91,22.9-85.46,76.75-85.46,135.73V357.54"></path><line class="cls-32" x1="746.31" y1="196.05" x2="746.31" y2="357.54"></line><path class="cls-4" d="M988.79,93c12.36,0,22.38,14.94,22.38,33.37a47.34,47.34,0,0,1-2.1,14.11h10A33.38,33.38,0,0,0,988.79,93Z"></path><path class="cls-2" d="M996.64,93.09A3.79,3.79,0,0,0,993,90.41h-1.37c1.13,0,2.12,1.09,2.45,2.68l.8,3.86h2.93Z"></path><path class="cls-5" d="M991.64,90.41h-7.08a3.79,3.79,0,0,0-3.62,2.68L979.76,97h15.13l-.8-3.86C993.76,91.5,992.77,90.41,991.64,90.41Z"></path><path class="cls-5" d="M988.79,93a33.38,33.38,0,0,0-30.24,47.49h50.52a47.34,47.34,0,0,0,2.1-14.11C1011.17,107.94,1001.15,93,988.79,93Z"></path></g></svg>