<svg xmlns="http://www.w3.org/2000/svg" width="24" height="24" viewBox="8 2 12 18">
    <g transform="translate(5 4)">
        <path d="M4.82139491 2.73149396L4.23687883 1.09382884C4.09352033.675905226 4.31609934.220896176 4.73402295.0775376811 4.91814308.0143797671 5.11897383.0205172456 5.2988937.0948003861L12.2375929 2.95956672C12.6459826 3.12817772 12.8403616 3.5959292 12.6717506 4.00431888 12.5660752 4.20421304 12.5660752 4.20421304 12.3947736 4.35179587L11.0151851 5.28071724 9.41698021 4.59111793 10.4978333 3.85064697 6.16007996 2.07008362 6.63390322 3.46195645 4.82139491 2.73149396zM2.18830112 4.57403771L6.23293694 13.2248454 7.24893114 9.62205884 11.1684588 8.30896474 2.18830112 4.57403771zM7.13408845 15.4054148C7.01235966 15.8301428 6.56936888 16.0757723 6.14464084 15.9540435 5.92087482 15.8899112 5.73613841 15.7314978 5.63862722 15.5201314L.0773889926 3.55313351C-.107696028 3.15194112.0674936151 2.67666936.468686013 2.49158434.671761123 2.39789822.904780779 2.3934943 1.11125082 2.47944029L13.467789 7.64132489C13.8756884 7.81111861 14.0687111 8.27943139 13.8989174 8.68733076 13.8101434 8.90059465 13.633517 9.06507487 13.4144791 9.13845549L8.47351169 10.7937455 7.13408845 15.4054148z"/>
    </g>
</svg>
