<svg xmlns="http://www.w3.org/2000/svg" width="24" height="24" viewBox="8 2 12 20">
    <g fillRule="evenodd" transform="translate(5 4)">
      <path
        fillRule="nonzero"
        d="M7.5,2.05162898 L7.5,13.9811322 L12.5,12.4738292 L12.5,3.64319474 L7.5,2.05162898 Z M6.65165865,0.207431518 L13.6516586,2.43562358 C13.8591188,2.50166088 14,2.6943515 14,2.91206839 L14,13.2168199 C14,13.4373763 13.8554849,13.6318808 13.6443153,13.6955401 L6.6443153,15.8057643 C6.3799254,15.8854675 6.10098287,15.7357493 6.02127973,15.4713594 C6.00716953,15.4245532 6,15.3759308 6,15.3270441 L6,0.683876325 C6,0.407733951 6.22385763,0.183876325 6.5,0.183876325 C6.55146387,0.183876325 6.60261926,0.191821636 6.65165865,0.207431518 Z"
      />
      <path d="M3.39686228 2C3.68422148 2 3.71743682 2 4.04181028 2 4.36618374 2 4.5 2.14321213 4.5 2.45684987 4.5 6.13754463 4.5 13.2482256 4.5 13.5761548 4.5 13.9040841 4.36945692 14 4.04181028 14 3.87375685 14 3.61057516 14 3.44255066 14 3.15976224 14 3 13.9167165 3 13.5761548 3 13.2355932 3 2.72058308 3 2.43634782 3 2.15211256 3.10950307 2 3.39686228 2zM.396862278 4C.684221483 4 .71743682 4 1.04181028 4 1.36618374 4 1.5 4.14321213 1.5 4.45684987 1.5 8.13754463 1.5 11.2482256 1.5 11.5761548 1.5 11.9040841 1.36945692 12 1.04181028 12 .873756851 12 .610575159 12 .442550659 12 .159762238 12-1.69433635e-13 11.9167165-2.28677435e-13 11.5761548-2.87923007e-13 11.2355932-5.53600633e-14 4.72058308-1.46427842e-13 4.43634782-2.37537253e-13 4.15211256.109503074 4 .396862278 4z" />
    </g>
</svg>
