<svg width="8" height="12" xmlns="http://www.w3.org/2000/svg"><path d="M1 0h2.452055c.575345 0 1.106847.128766 1.59452.386301.471236.252056.846574.594519 1.126028 1.027398.290412.438358.443835.909586.460274 1.413698 0 .378084-.057534.731505-.172603 1.060274-.098631.350687-.271232.671232-.517808.961644-.273974.295892-.599998.506849-.978082.632877v.041096c.673976.126028 1.213696.372601 1.619178.739726.367125.334248.624656.715066.772602 1.142465.131508.400002.197261.780821.197261 1.142466 0 .591784-.150684 1.147943-.452055 1.668493-.301372.536989-.734244.964382-1.29863 1.282192C5.221915 11.832878 4.545209 12 3.772603 12H1c-.552285 0-1-.447715-1-1V1c0-.552285.447715-1 1-1zm.463014 1.273973v3.789041h1.717808c.427399 0 .7863-.09041 1.076712-.271233.295892-.186302.519178-.420547.669863-.70274.150686-.282193.226028-.590409.226028-.924657 0-.520551-.158903-.964382-.476713-1.331507-.323289-.372605-.76712-.558904-1.331507-.558904H1.463014zm0 5.005479v4.438356h1.989041c.580825 0 1.063012-.101369 1.446575-.304109.400002-.186303.69041-.449314.871233-.789041.186302-.31781.287671-.68767.30411-1.10959 0-.405481-.09041-.769861-.271233-1.09315-.169864-.334248-.449313-.613698-.838356-.838356-.367126-.202741-.821916-.30411-1.364384-.30411H1.463014z" fill-rule="evenodd"/></svg>
