<svg width="24px" height="24px" fill="text" viewBox="0 0 24 24" class="css-1gyf2nx-SVG eabj0db0"><g><path d="M20.0832,18.6842063 C20.0832,18.3992552 20.1472,18.0754473 20.2368,17.6868777 L21.248,13.9954667 C21.504,13.1276613 21.5936,12.3634745 21.5936,11.6510969 C21.5936,8.89225289 19.9424,7.45454545 17.9456,7.45454545 C16.0768,7.45454545 14.1696,9.1642516 13.2224,10.964624 L13.9136,7.7524488 L8.4864,7.7524488 L7.7312,10.601959 L10.2656,10.601959 L8.704,16.9097385 C7.4752,19.6685825 5.2224,19.6944872 4.9408,19.6297256 C4.48,19.526107 4.1856,19.3447745 4.1856,18.7360155 C4.1856,18.3863029 4.2496,17.8811625 4.4032,17.2724035 L6.784,7.73949648 L0.7552,7.73949648 L0,10.5890067 L2.5088,10.5890067 L0.896,17.2594511 C0.768,17.8034486 0.704,18.3733506 0.704,18.8525864 C0.704,20.743625 1.7152,22 3.8784,22 C5.6704,22 7.1168,20.9120052 8.1664,19.1763944 L7.5264,21.7409536 L11.072,21.7409536 L13.1072,13.5291832 C13.6192,11.4438598 14.592,10.3947219 16.0896,10.3947219 C17.2672,10.3947219 17.9968,11.1330041 17.9968,12.3505221 C17.9968,12.7002348 17.9712,13.0888043 17.8432,13.5032786 L16.7936,17.2853558 C16.64,17.8293532 16.576,18.3733506 16.576,18.8914434 C16.576,20.6918158 17.6256,22 19.8144,22 C21.6832,22 23.1808,20.782482 24,17.8552578 L22.6048,17.3112604 C21.888,19.2929653 21.2864,19.6426779 20.8128,19.6426779 C20.3392,19.6426779 20.0832,19.3188699 20.0832,18.6842063 L20.0832,18.6842063 L20.0832,18.6842063 L20.0832,18.6842063 Z M5.07692308,6.54545455 C6.34065934,6.54545455 7.38461538,5.55969332 7.38461538,4.27272727 C7.38461538,2.98576123 6.32692308,2 5.07692308,2 C3.81318681,2 2.76923077,2.98576123 2.76923077,4.27272727 C2.76923077,5.55969332 3.82692308,6.54545455 5.07692308,6.54545455 L5.07692308,6.54545455 L5.07692308,6.54545455 L5.07692308,6.54545455 Z"></path></g></svg>