<svg width="12" height="15" xmlns="http://www.w3.org/2000/svg"><path d="M2 .824373c0-.262845.077658-.462963.232975-.600359C2.382319.074671 2.567502 0 2.78853 0c.221029 0 .409199.074671.564517.224014.161291.137396.241935.337514.241935.600359v6.829749c0 .758666.18817 1.353044.564516 1.783154.370372.442057.928909.663082 1.675627.663082 1.529279 0 2.293907-.815404 2.293907-2.446236V.824373c0-.262845.077658-.462963.232975-.600359C8.511351.074671 8.696534 0 8.917563 0c.221028 0 .409198.074671.564516.224014.161291.137396.241935.337514.241935.600359v6.865591c0 .704902-.134407 1.329149-.403225 1.87276-.28674.591401-.713857 1.057346-1.281362 1.397849-.597375.352451-1.344082.528674-2.240144.528674-.860219 0-1.571084-.170249-2.132616-.510752-.567506-.352451-.988649-.812423-1.263441-1.379929C2.134407 9.037034 2 8.40084 2 7.689964V.824373zM.75 13.5h10.5c.414214 0 .75.335786.75.75s-.335786.75-.75.75H.75c-.414214 0-.75-.335786-.75-.75s.335786-.75.75-.75z" fill-rule="evenodd"/></svg>
