<svg width="12" height="12" xmlns="http://www.w3.org/2000/svg">
  <path d="M3.261421 12c-1.497734 0-2.113625-.592105-2.113625-2.013158V7.526316c0-.592105-.16797-.776316-.755866-.776316H0V4.973684h.39193c.587896 0 .755866-.171052.755866-.776316v-2.18421C1.147796.578947 1.763687 0 3.261421 0H4.33923v1.407895h-.839851c-.629888 0-.853848.263158-.853848 1v2.144737c0 .802631-.503911 1.302631-1.119802 1.302631v.026316c.615891 0 1.119802.486842 1.119802 1.289474v2.407894c0 .736842.22396 1 .853848 1h.839851V12H3.261421zm5.476391 0H7.660004v-1.421053h.839851c.629888 0 .853848-.263158.853848-1V7.171053c0-.802632.503911-1.289474 1.119801-1.289474v-.026316c-.61589 0-1.119801-.5-1.119801-1.302631V2.407895c0-.736842-.22396-1-.853848-1h-.839851V0h1.077808c1.497735 0 2.113625.578947 2.113625 2.013158v2.18421c0 .605264.167971.776316.755866.776316h.391931V6.75h-.391931c-.587895 0-.755866.184211-.755866.776316v2.460526c0 1.421053-.61589 2.013158-2.113625 2.013158z" fill="#434C5E" fill-rule="evenodd"/>
</svg>
