<svg width="13" height="10" xmlns="http://www.w3.org/2000/svg">
  <path d="M0 .878442C0 .615177.06997.411015.209913.26595.355238.11014.52209.032236.710475.032236c.193766 0 .36331.072532.508635.217596.145325.145065.217986.354599.217986.62861v3.505037h3.10966V.878442c0-.290129.072662-.505036.217987-.644728C4.920833.077904 5.084994 0 5.257231 0c.188384 0 .366001.077904.532856.233714C5.93003.373406 6 .588313 6 .878442V9.19409c0 .263265-.071316.463398-.21395.600403C5.643416 9.931498 5.467145 10 5.257231 10c-.188384 0-.352545-.069845-.492488-.209537-.145325-.145064-.217987-.343853-.217987-.596373V5.656817h-3.10966V9.19409c0 .268638-.072661.467427-.217986.596373C1.079167 9.930155.909624 10 .710475 10c-.19915 0-.366002-.069845-.500562-.209537C.06997 9.645399 0 9.44661 0 9.19409V.878442zM11.192383 8.244V3.997333c-.826827.60667-1.383462.91-1.669922.91-.136719 0-.257975-.05211-.36377-.156333C9.052897 4.646777 9 4.526223 9 4.389333c0-.158667.052083-.275333.15625-.35.104167-.074667.288085-.17111.551758-.289333.393882-.177334.70882-.363999.944824-.56.236004-.196001.445149-.415332.627441-.658.182293-.242668.301107-.392.356446-.448.055339-.056.159504-.084.3125-.084.172527 0 .310872.063777.415039.191333.104167.127557.15625.303333.15625.527334V8.062c0 .625336-.22298.938-.668946.938-.198568 0-.358072-.063777-.478515-.191333-.120443-.127557-.180664-.315777-.180664-.564667z" fill="#434C5E" fill-rule="evenodd"/>
</svg>
