<svg width="24px" height="24px" viewBox="0 0 24 24" version="1.1" xmlns="http://www.w3.org/2000/svg" xmlns:xlink="http://www.w3.org/1999/xlink">
    <title>Icon/Warning</title>
    <g id="Page-1" stroke="none" stroke-width="1" fill="none" fill-rule="evenodd">
        <g id="Icons" transform="translate(-417.000000, -596.000000)" fill="red">
            <g id="Icon/Warning" transform="translate(417.000000, 596.000000)">
                <g id="icon---warning">
                    <path d="M23.2978906,23.6781633 C23.7177724,23.4682234 23.8879632,22.9576509 23.6780233,22.5377691 L12.7602147,0.702153981 C12.6779661,0.537655711 12.5445814,0.404271543 12.380083,0.322022408 C11.9602022,0.11208155 11.4496297,0.282272249 11.2396888,0.702153981 L0.321881175,22.5377691 C0.26286763,22.6557958 0.232144296,22.7859419 0.232144296,22.9178999 C0.232144296,23.3873422 0.61270225,23.7679003 1.08214426,23.7679003 L22.9177598,23.7679003 C23.0497178,23.7679003 23.1798639,23.7371767 23.2978906,23.6781633 Z M11.9999513,2.53572968 L2.13386625,22.2679003 L21.8660364,22.2679003 L11.9999513,2.53572968 Z M11.2499561,15.7102449 L12.7499561,15.7102449 L12.7499561,8.21024492 L11.2499561,8.21024492 L11.2499561,15.7102449 Z M11.9999561,19.9602449 C12.8279561,19.9602449 13.4999561,19.2892454 13.4999561,18.4602449 C13.4999561,17.6312445 12.8279561,16.9602449 11.9999561,16.9602449 C11.171956,16.9602449 10.4999561,17.6312445 10.4999561,18.4602449 C10.4999561,19.2892454 11.171956,19.9602449 11.9999561,19.9602449 Z" id="Shape"></path>
                </g>
            </g>
        </g>
    </g>
</svg>
