<svg width="12" height="12" xmlns="http://www.w3.org/2000/svg" fill="#A3A7B0">
  <path d="M5.25 10.5c.41475 0 .75.33525.75.75s-.33525.75-.75.75H1.1235C.504 12 0 11.496 0 10.8765V6.75C0 6.33525.33525 6 .75 6s.75.33525.75.75v2.6895l2.84475-2.84475 1.0605 1.0605L2.5605 10.5H5.25zM10.8765 0C11.496 0 12 .504 12 1.1235V5.25c0 .41475-.33525.75-.75.75s-.75-.33525-.75-.75V2.5605L7.65525 5.40525l-1.0605-1.0605L9.4395 1.5H6.75C6.33525 1.5 6 1.16475 6 .75S6.33525 0 6.75 0h4.1265z" fill-rule="evenodd"/>
</svg>
