<svg width="13" height="12" xmlns="http://www.w3.org/2000/svg"><path d="M5.865068 4.5H12.25c.414214 0 .75.335786.75.75s-.335786.75-.75.75H.75C.335786 6 0 5.664214 0 5.25s.335786-.75.75-.75h2.719149c-.031033-.051731-.060817-.105266-.089351-.160606-.161617-.328621-.250505-.735351-.266667-1.220202 0-.597983.172389-1.134004.517172-1.608081C3.996635.999324 4.438381.630304 4.955556.40404 5.505053.134679 6.068011 0 6.644444 0 7.614146 0 8.40067.204712 9.00404.614141c.323234.226264.484849.487541.484849.783839 0 .167004-.06734.309764-.20202.428283-.107745.123906-.266666.193939-.476768.210101-.172391-.037711-.444443-.14276-.816162-.315152-.323234-.15623-.587204-.272053-.791919-.347475-.167004-.075421-.387877-.113131-.662626-.113131-.527949 0-.958921.153534-1.292929.460606-.334009.307072-.536027.72727-.606061 1.260606.03027.64071.438487 1.146766 1.224664 1.518182zm4.336014 3c.063925.260675.095888.532391.095888.815152 0 .619531-.148147 1.209424-.444445 1.769696-.323234.587209-.775754 1.050504-1.357576 1.389899C7.875418 11.824918 7.153539 12 6.329293 12c-.614145 0-1.193263-.080807-1.737374-.242424-.533336-.150843-.948146-.339393-1.244444-.565657-.21549-.145455-.331313-.360941-.347475-.646464 0-.188554.059259-.358249.177778-.509091.118519-.134681.274746-.202021.468687-.202021.086195 0 .223568.043098.412121.129293.371719.2532.763634.447138 1.175757.581819.412124.13468.836362.20202 1.272728.20202.371719 0 .740739-.110437 1.10707-.331313.328622-.21549.595286-.498315.8-.848485.199328-.355558.29899-.729965.29899-1.123233 0-.35963-.09176-.674442-.275284-.944444h1.763235z" fill-rule="evenodd"/></svg>
