<svg width="13" height="12" xmlns="http://www.w3.org/2000/svg">
  <path d="M6.75 0h5.5c.414214 0 .75.335786.75.75s-.335786.75-.75.75h-5.5C6.335786 1.5 6 1.164214 6 .75S6.335786 0 6.75 0zm0 5h5.5c.414214 0 .75.335786.75.75s-.335786.75-.75.75h-5.5c-.414214 0-.75-.335786-.75-.75S6.335786 5 6.75 5zm0 5h5.5c.414214 0 .75.335786.75.75s-.335786.75-.75.75h-5.5c-.414214 0-.75-.335786-.75-.75s.335786-.75.75-.75zM2.1875 5h-.954484V1.402853C.884283 1.728942.473281 1.970108 0 2.126359V1.26019c.249095-.081522.5197-.236072.811821-.463655C1.103942.568953 1.304347.303444 1.413043 0H2.1875v5zm1.158288 6.113451V12H0c.036232-.335147.144927-.652739.326087-.952785.18116-.300047.538947-.698028 1.07337-1.193954.430255-.400817.694066-.672554.79144-.815218.131341-.197011.197011-.391756.197011-.584239 0-.212863-.057178-.376471-.171536-.490828-.114357-.114358-.272304-.171536-.473845-.171536-.199276 0-.357789.060009-.475543.180027-.117755.120019-.185689.319292-.203805.597826l-.951087-.095108c.056613-.525365.234374-.902399.533288-1.131114C.944295 7.114356 1.317933 7 1.766304 7c.491398 0 .87749.132472 1.158288.397418.280799.264947.421196.594428.421196.988452 0 .224185-.040194.437612-.120584.640285-.08039.202673-.207767.414967-.382133.636888-.11549.147193-.323821.358921-.625.635191-.301179.276269-.491961.459691-.572351.550271-.08039.090581-.145493.178895-.195312.264946h1.89538z" fill="#434C5E" fill-rule="evenodd"/>
</svg>
