<svg width="18" height="18" xmlns="http://www.w3.org/2000/svg">
  <path d="M10.5907003 9.00014062l7.0794038-7.07951438c.4398612-.43986813.4398612-1.15085702 0-1.59072515-.4398613-.43986812-1.1508391-.43986812-1.5907003 0L9 7.40941549 1.92059623.3299011c-.43986125-.43986813-1.15083903-.43986813-1.59070029 0-.43986125.43986812-.43986125 1.15085701 0 1.59072514l7.07940377 7.07951438L.32989594 16.079655c-.43986125.4398681-.43986125 1.150857 0 1.5907252C.5492641 17.8897517.8372551 18 1.1252461 18s.575982-.1102483.79535014-.3296198L9 10.5908658l7.0794038 7.0795144c.2193681.2193715.5073591.3296198.7953501.3296198s.575982-.1102483.7953502-.3296198c.4398612-.4398682.4398612-1.1508571 0-1.5907252l-7.0794038-7.07951438z" fill="#6C7689" fill-rule="evenodd"/>
</svg>
