<svg width="14" height="10" xmlns="http://www.w3.org/2000/svg">
  <path d="M0 .878442C0 .615177.06997.411015.209913.26595.355238.11014.52209.032236.710475.032236c.193766 0 .36331.072532.508635.217596.145325.145065.217986.354599.217986.62861v3.505037h3.10966V.878442c0-.290129.072662-.505036.217987-.644728C4.920833.077904 5.084994 0 5.257231 0c.188384 0 .366001.077904.532856.233714C5.93003.373406 6 .588313 6 .878442V9.19409c0 .263265-.071316.463398-.21395.600403C5.643416 9.931498 5.467145 10 5.257231 10c-.188384 0-.352545-.069845-.492488-.209537-.145325-.145064-.217987-.343853-.217987-.596373V5.656817h-3.10966V9.19409c0 .268638-.072661.467427-.217986.596373C1.079167 9.930155.909624 10 .710475 10c-.19915 0-.366002-.069845-.500562-.209537C.06997 9.645399 0 9.44661 0 9.19409V.878442zm11.250977 3.869222c.29948 0 .557453-.084112.773925-.252337.216473-.168225.324707-.409656.324707-.724299 0-.239877-.086262-.446261-.258789-.619159-.172527-.172898-.405272-.259346-.698242-.259346-.198569 0-.362141.02648-.490723.07944-.128581.052959-.230305.123052-.305175.21028-.07487.087228-.145671.199376-.212403.336449-.066732.137072-.127766.266354-.183105.38785-.032552.065421-.091146.116822-.175781.154206-.084636.037383-.182291.056074-.292969.056074-.130209 0-.249837-.050622-.358887-.151869-.10905-.101246-.163574-.23598-.163574-.404205 0-.161995.051269-.332554.153809-.511683.102539-.179128.252277-.349687.449218-.511682.196941-.161994.441893-.292055.734864-.390187C10.840822 2.049065 11.167967 2 11.529297 2c.315757 0 .60384.041277.864258.123832.260418.082555.486652.201712.678711.357476.192058.155764.336913.336448.43457.542056.097657.205609.146484.426791.146484.663552 0 .311528-.0708.578659-.212402.801402-.141602.222742-.344237.44003-.60791.651869.253907.130842.467935.280373.64209.448598.174154.168225.305175.35436.393066.558411.087891.204051.131836.424454.131836.661215 0 .283491-.059407.557631-.178223.82243-.118815.264799-.293781.500778-.524902.707944-.231121.207166-.50537.369158-.822754.485981C12.156737 8.941589 11.805992 9 11.421875 9c-.390627 0-.740558-.066978-1.049805-.200935-.309246-.133957-.563964-.3014-.76416-.502336-.200196-.200936-.351562-.408877-.454101-.623832C9.051269 7.457943 9 7.280375 9 7.140187c0-.180686.061035-.326324.183105-.436916.122071-.110592.274251-.165888.456543-.165888.091147 0 .179036.025701.263672.077103.084636.051402.139974.112928.166016.184579.169272.433024.350748.754672.544434.964954.193685.210281.466306.31542.817871.31542.201824 0 .39632-.047507.583496-.142523.187175-.095016.341796-.23598.463867-.422897.122071-.186917.183105-.403426.183105-.649533 0-.364488-.104165-.650311-.3125-.857477-.208334-.207166-.498045-.310747-.86914-.310747-.065105 0-.166015.00623-.302735.018691-.136719.012461-.224609.018692-.263672.018692-.179037 0-.317382-.042835-.415039-.128505-.097656-.08567-.146484-.204828-.146484-.357476 0-.149534.058593-.270249.175781-.36215.117188-.091901.29134-.13785.522461-.13785h.200196z" fill="#434C5E" fill-rule="evenodd"/>
</svg>
