<svg width="12" height="12" xmlns="http://www.w3.org/2000/svg"><path d="M6.204724 8.834646c.251969-.251969.64567-.251969.866142-.015748.251969.251968.251969.645669 0 .897637l-1.385827 1.385827C5.102362 11.685039 4.330709 12 3.511811 12c-.818898 0-1.590551-.314961-2.173228-.897638l-.440945-.440945C.314961 10.07874 0 9.322835 0 8.488189S.314961 6.88189.897638 6.299213l1.858268-1.84252c1.19685-1.19685 3.165354-1.19685 4.362204 0l.661418.661417c.251968.251969.251968.64567 0 .897638-.251969.251969-.64567.251969-.897638 0l-.661418-.661417c-.708661-.708662-1.874015-.708662-2.582677 0L1.795276 7.19685c-.346457.346457-.535433.80315-.535433 1.291339s.188976.944882.535433 1.291339l.440944.440944c.346457.346457.80315.535434 1.291339.535434s.944882-.188977 1.291339-.535434l1.385826-1.385826zM10.661417.897638l.425197.472441c.582677.582677.897638 1.35433.897638 2.173228 0 .818898-.314961 1.590551-.897638 2.173228l-1.606299 1.6063c-.582677.582677-1.354331.897637-2.173228.897637-.818898 0-1.590552-.31496-2.173229-.897637l-.661417-.661418c-.251969-.251968-.251969-.645669 0-.897637.251968-.251969.645669-.251969.897638 0l.661417.661417c.346457.346457.80315.535433 1.291339.535433s.944882-.188976 1.291338-.535433l1.622047-1.606299c.346457-.346457.535434-.80315.535434-1.291339s-.188977-.944882-.535434-1.291339l-.440944-.440944c-.346457-.346457-.80315-.535433-1.291339-.535433s-.944882.188976-1.291339.535433L6.047244 2.96063c-.251968.251968-.645669.251968-.897638 0-.251968-.251969-.251968-.645669 0-.897638L6.314961.897638C6.897638.314961 7.669291 0 8.488189 0c.818898 0 1.590551.314961 2.173228.897638z" fill-rule="evenodd"/></svg>
