<svg width="13" height="3" xmlns="http://www.w3.org/2000/svg">
  <path d="M1.444444 2.88889C.6467 2.88889 0 2.24219 0 1.44444 0 .6467.6467 0 1.444444 0c.797745 0 1.444445.6467 1.444445 1.44444 0 .79775-.6467 1.44445-1.444445 1.44445zm5.055556 0c-.797745 0-1.444444-.6467-1.444444-1.44445C5.055556.6467 5.702255 0 6.5 0s1.444444.6467 1.444444 1.44444c0 .79775-.646699 1.44445-1.444444 1.44445zm5.055556 0c-.797745 0-1.444445-.6467-1.444445-1.44445 0-.79774.6467-1.44444 1.444445-1.44444C12.3533 0 13 .6467 13 1.44444c0 .79775-.6467 1.44445-1.444444 1.44445z" fill-rule="evenodd"/>
</svg>
