<svg width="14" height="10" xmlns="http://www.w3.org/2000/svg">
  <path d="M0 .878442C0 .615177.06997.411015.209913.26595.355238.11014.52209.032236.710475.032236c.193766 0 .36331.072532.508635.217596.145325.145065.217986.354599.217986.62861v3.505037h3.10966V.878442c0-.290129.072662-.505036.217987-.644728C4.920833.077904 5.084994 0 5.257231 0c.188384 0 .366001.077904.532856.233714C5.93003.373406 6 .588313 6 .878442V9.19409c0 .263265-.071316.463398-.21395.600403C5.643416 9.931498 5.467145 10 5.257231 10c-.188384 0-.352545-.069845-.492488-.209537-.145325-.145064-.217987-.343853-.217987-.596373V5.656817h-3.10966V9.19409c0 .268638-.072661.467427-.217986.596373C1.079167 9.930155.909624 10 .710475 10c-.19915 0-.366002-.069845-.500562-.209537C.06997 9.645399 0 9.44661 0 9.19409V.878442zM10.632542 7.88h2.477289c.24678 0 .435027.050621.564745.151864.129718.101244.194577.23887.194577.412882 0 .155029-.051412.286327-.154238.393898C13.61209 8.946215 13.456272 9 13.247458 9H9.754576c-.237289 0-.422372-.065649-.555254-.196949C9.06644 8.671751 9 8.517515 9 8.340339c0-.113899.042711-.264971.128136-.45322.085424-.18825.178756-.336158.28-.443729.420793-.436613.80045-.810733 1.138983-1.122373.338532-.31164.580564-.516497.726101-.614576.259437-.183504.475367-.367796.647797-.552882.17243-.185085.303728-.374914.393898-.569491.09017-.194577.135254-.385197.135254-.571865 0-.202486-.048248-.383615-.144745-.543389-.096498-.159775-.227796-.283955-.393899-.372543-.166102-.088588-.34723-.132881-.543389-.132881-.414466 0-.740338.181919-.977628.545763-.031638.047457-.084632.177174-.158983.389152-.07435.211979-.158191.374915-.251525.488814-.093334.113899-.230169.170847-.410508.170847-.158193 0-.289491-.052203-.393899-.15661-.104407-.104407-.15661-.246779-.15661-.427119 0-.218306.049039-.4461.147119-.68339.098079-.237289.244406-.452428.438983-.645423.194577-.192996.441354-.348813.740339-.467458C10.644408 2.059321 10.9948 2 11.39661 2c.48407 0 .896948.075931 1.238644.227797.22147.101243.416045.240451.583729.417627.167685.177176.298192.382032.391525.614576.093334.232544.14.473784.14.723729 0 .392318-.097287.749038-.291864 1.070169-.194577.321132-.393106.572655-.595593.754577-.202487.181921-.541806.467455-1.017966.85661-.476161.389154-.802824.691298-.98.90644-.075933.085425-.153446.188248-.232543.308475z" fill="#434C5E" fill-rule="evenodd"/>
</svg>
