<svg width="16" height="16" xmlns="http://www.w3.org/2000/svg">
  <path d="M7.992 0C3.576 0 0 3.584 0 8s3.576 8 7.992 8C12.416 16 16 12.416 16 8s-3.584-8-8.008-8M8 14.4c-3.536 0-6.4-2.864-6.4-6.4 0-3.536 2.864-6.4 6.4-6.4 3.536 0 6.4 2.864 6.4 6.4 0 3.536-2.864 6.4-6.4 6.4m2.8-7.2c.664 0 1.2-.536 1.2-1.2 0-.664-.536-1.2-1.2-1.2-.664 0-1.2.536-1.2 1.2 0 .664.536 1.2 1.2 1.2m-5.6 0c.664 0 1.2-.536 1.2-1.2 0-.664-.536-1.2-1.2-1.2C4.536 4.8 4 5.336 4 6c0 .664.536 1.2 1.2 1.2M8 12.4c1.864 0 3.448-1.168 4.088-2.8H3.912c.64 1.632 2.224 2.8 4.088 2.8" fill="#B7BECA" fill-rule="evenodd"/>
</svg>
